<svg xmlns="http://www.w3.org/2000/svg" display="none"><defs><g id="chevron-bg-1-left"><rect width="100%" height="100%" fill="#f6f6f6" rx="15"/><path fill="#767676" d="M-371 2074.89a1 1 0 0 0 .514-.143 1 1 0 0 0 .342-1.372l-2.691-4.485 2.691-4.486a1 1 0 0 0-.342-1.372 1 1 0 0 0-1.372.343l-3 5a1 1 0 0 0 0 1.029l3 5a1 1 0 0 0 .858.486z" transform="translate(387 -2053.887)"/></g><g id="chevron-bg-1-left-hover"><rect width="100%" height="100%" fill="rgba(163,163,163,0.4)" rx="15"/><path fill="#000" d="M-371 2074.89a1 1 0 0 0 .514-.143 1 1 0 0 0 .342-1.372l-2.691-4.485 2.691-4.486a1 1 0 0 0-.342-1.372 1 1 0 0 0-1.372.343l-3 5a1 1 0 0 0 0 1.029l3 5a1 1 0 0 0 .858.486z" transform="translate(387 -2053.887)"/></g><g id="chevron-bg-2-left"><rect width="100%" height="100%" fill="rgba(0,0,0,0.4)" rx="15"/><path fill="#fff" d="M-371 2074.89a1 1 0 0 0 .514-.143 1 1 0 0 0 .342-1.372l-2.691-4.485 2.691-4.486a1 1 0 0 0-.342-1.372 1 1 0 0 0-1.372.343l-3 5a1 1 0 0 0 0 1.029l3 5a1 1 0 0 0 .858.486z" transform="translate(387 -2053.887)"/></g><g id="chevron-bg-2-left-hover"><rect width="100%" height="100%" fill="rgba(0,0,0,0.6)" rx="15"/><path fill="#fff" d="M-371 2074.89a1 1 0 0 0 .514-.143 1 1 0 0 0 .342-1.372l-2.691-4.485 2.691-4.486a1 1 0 0 0-.342-1.372 1 1 0 0 0-1.372.343l-3 5a1 1 0 0 0 0 1.029l3 5a1 1 0 0 0 .858.486z" transform="translate(387 -2053.887)"/></g><g id="chevron-bg-3-left"><rect width="100%" height="100%" fill="rgba(255,255,255,0.4)" rx="15"/><path fill="#fff" d="M-371 2074.89a1 1 0 0 0 .514-.143 1 1 0 0 0 .342-1.372l-2.691-4.485 2.691-4.486a1 1 0 0 0-.342-1.372 1 1 0 0 0-1.372.343l-3 5a1 1 0 0 0 0 1.029l3 5a1 1 0 0 0 .858.486z" transform="translate(387 -2053.887)"/></g><g id="chevron-bg-3-left-hover"><rect width="100%" height="100%" fill="rgba(255,255,255,0.6)" rx="15"/><path fill="#fff" d="M-371 2074.89a1 1 0 0 0 .514-.143 1 1 0 0 0 .342-1.372l-2.691-4.485 2.691-4.486a1 1 0 0 0-.342-1.372 1 1 0 0 0-1.372.343l-3 5a1 1 0 0 0 0 1.029l3 5a1 1 0 0 0 .858.486z" transform="translate(387 -2053.887)"/></g><g id="chevron-1"><g transform="translate(-1590 -2804)"><path fill="#165DBA" d="M7 1052.89a1 1 0 0 1-.856-1.515l5.691-9.485-5.692-9.49a1 1 0 1 1 1.714-1.029l6 10a1 1 0 0 1 0 1.029l-6 10a1 1 0 0 1-.857.49z" transform="translate(1601 1783)"/></g><g><rect width="100%" height="100%" fill="rgba(0,0,0,0.05)" rx="20"/></g></g><g id="chevron-1-hover"><g transform="translate(-1590 -2804)"><path fill="#1967b1" d="M7 1052.89a1 1 0 0 1-.856-1.515l5.691-9.485-5.692-9.49a1 1 0 1 1 1.714-1.029l6 10a1 1 0 0 1 0 1.029l-6 10a1 1 0 0 1-.857.49z" transform="translate(1601 1783)"/></g><g><rect width="100%" height="100%" fill="rgba(0,0,0,0.05)" rx="20"/></g></g><g id="img-arrow-dark-down" transform="rotate(90 1334.5 859.5)"><rect width="100%" height="100%" fill="rgba(0,0,0,0.3)" rx="15" transform="translate(475 2164)"/><path fill="#fff" d="M-374 2074.89a1 1 0 0 1-.514-.143 1 1 0 0 1-.342-1.372l2.691-4.485-2.691-4.486a1 1 0 0 1 .342-1.372 1 1 0 0 1 1.372.343l3 5a1 1 0 0 1 0 1.029l-3 5a1 1 0 0 1-.858.486z" transform="translate(863 110.113)"/></g><g id="img-arrow-dark-down-hover" transform="rotate(90 1334.5 859.5)"><rect width="100%" height="100%" fill="rgba(0,0,0,0.4)" rx="15" transform="translate(475 2164)"/><path fill="#fff" d="M-374 2074.89a1 1 0 0 1-.514-.143 1 1 0 0 1-.342-1.372l2.691-4.485-2.691-4.486a1 1 0 0 1 .342-1.372 1 1 0 0 1 1.372.343l3 5a1 1 0 0 1 0 1.029l-3 5a1 1 0 0 1-.858.486z" transform="translate(863 110.113)"/></g><g id="img-arrow-3-down" transform="rotate(90 1334.5 859.5)"><rect width="100%" height="100%" fill="rgba(255,255,255,0.2)" rx="15" transform="translate(475 2164)"/><path fill="#fff" d="M-374 2074.89a1 1 0 0 1-.514-.143 1 1 0 0 1-.342-1.372l2.691-4.485-2.691-4.486a1 1 0 0 1 .342-1.372 1 1 0 0 1 1.372.343l3 5a1 1 0 0 1 0 1.029l-3 5a1 1 0 0 1-.858.486z" transform="translate(863 110.113)"/></g><g id="img-arrow-3-down-hover" transform="rotate(90 1334.5 859.5)"><rect width="100%" height="100%" fill="rgba(255,255,255,0.4)" rx="15" transform="translate(475 2164)"/><path fill="#fff" d="M-374 2074.89a1 1 0 0 1-.514-.143 1 1 0 0 1-.342-1.372l2.691-4.485-2.691-4.486a1 1 0 0 1 .342-1.372 1 1 0 0 1 1.372.343l3 5a1 1 0 0 1 0 1.029l-3 5a1 1 0 0 1-.858.486z" transform="translate(863 110.113)"/></g><g id="img-arrow-light-down" transform="rotate(90 1334.5 859.5)"><rect width="100%" height="100%" fill="#f6f6f6" rx="15" transform="translate(475 2164)"/><path fill="#767676" d="M-374 2074.89a1 1 0 0 1-.514-.143 1 1 0 0 1-.342-1.372l2.691-4.485-2.691-4.486a1 1 0 0 1 .342-1.372 1 1 0 0 1 1.372.343l3 5a1 1 0 0 1 0 1.029l-3 5a1 1 0 0 1-.858.486z" transform="translate(863 110.113)"/></g><g id="img-arrow-light-down-hover" transform="rotate(90 1334.5 859.5)"><rect width="100%" height="100%" fill="rgba(163, 163, 163, 0.4)" rx="15" transform="translate(475 2164)"/><path fill="#000" d="M-374 2074.89a1 1 0 0 1-.514-.143 1 1 0 0 1-.342-1.372l2.691-4.485-2.691-4.486a1 1 0 0 1 .342-1.372 1 1 0 0 1 1.372.343l3 5a1 1 0 0 1 0 1.029l-3 5a1 1 0 0 1-.858.486z" transform="translate(863 110.113)"/></g><g id="arrow-right"><path d="m455.465 769.707-1.847-.974 3.478-5.054-3.475-4.989 1.841-.983 4.156 5.966z" transform="translate(-453.618 -757.707)"/></g><g id="indicator-dark"><path fill="#165DBA" d="M4 0h52a4 4 0 0 1 4 4H0a4 4 0 0 1 4-4z"/></g><g id="indicator-light"><path fill="#fff" d="M4 0h52a4 4 0 0 1 4 4H0a4 4 0 0 1 4-4z"/></g><g id="img-close-icon-dark"><path transform="translate(0 .002)" style="fill:rgba(0,0,0,.4)" d="M0 0h30v30H0z"/><path d="M21715 22391h-30v-30h30v30zm-29-29v28h28v-28h-28z" transform="translate(-21685 -22360.998)" style="fill:#fff"/><path d="m21668.006 22186.668-5.334 5.328-.668-.668 5.334-5.332-5.334-5.332.668-.668 5.334 5.332 5.33-5.328.668.668-5.33 5.328 5.33 5.332-.668.668z" transform="translate(-21653.002 -22170.996)" style="fill:#fff"/></g><g id="img-close-icon-dark-hover"><path transform="translate(0 .002)" style="fill:rgba(0,0,0,.6)" d="M0 0h30v30H0z"/><path d="M21715 22391h-30v-30h30v30zm-29-29v28h28v-28h-28z" transform="translate(-21685 -22360.998)" style="fill:#fff"/><path d="m21668.006 22186.668-5.334 5.328-.668-.668 5.334-5.332-5.334-5.332.668-.668 5.334 5.332 5.33-5.328.668.668-5.33 5.328 5.33 5.332-.668.668z" transform="translate(-21653.002 -22170.996)" style="fill:#fff"/></g><g id="img-close-icon-light"><path transform="translate(0 .002)" style="fill:rgba(255,255,255,.95)" d="M0 0h30v30H0z"/><path d="M30 30.002H0v-30h30v30zm-29-29v28h28v-28H1z"/><path d="M15.002 15.672 9.668 21 9 20.332 14.334 15 9 9.668 9.668 9l5.334 5.332 5.33-5.328.668.668L15.67 15 21 20.332l-.668.668z"/></g><g id="img-close-icon-light-hover"><path transform="translate(0 .002)" style="fill:rgba(255,255,255,.9)" d="M0 0h30v30H0z"/><path d="M30 30.002H0v-30h30v30zm-29-29v28h28v-28H1z"/><path d="M15.002 15.672 9.668 21 9 20.332 14.334 15 9 9.668 9.668 9l5.334 5.332 5.33-5.328.668.668L15.67 15 21 20.332l-.668.668z"/><path data-name="close-icon" d="M15.002 15.672 9.668 21 9 20.332 14.334 15 9 9.668 9.668 9l5.334 5.332 5.33-5.328.668.668L15.67 15 21 20.332l-.668.668z"/></g><g id="img-play-btn-large-light"><path fill="rgba(0,0,0,.4)" d="M0 0h70v70H0z"/><path d="M69.995 70H0V0h69.995v69.995zM2.909 2.915V67.08h64.164V2.915z" transform="translate(.006 .004)" fill="#fff"/><path d="M1.506 26.116A1 1 0 0 1 0 25.254V1.746A1 1 0 0 1 1.506.884l20.025 11.754a1 1 0 0 1 0 1.725z" transform="translate(26 21.5)" fill="#fff"/></g><g id="img-play-btn-large-light-hover"><rect id="fill" fill="rgba(0,0,0,0.6)" width="70" height="70"/><path id="border" fill="#fff" d="M69.995,70H0V0H69.995V69.995ZM2.909,2.915V67.08H67.073V2.915Z" transform="translate(0.006 0.004)"/><path id="play-large" fill="#fff" d="M1.506,26.116A1,1,0,0,1,0,25.254V1.746A1,1,0,0,1,1.506.884L21.531,12.638a1,1,0,0,1,0,1.725Z" transform="translate(26 21.5)"/></g><g id="img-collapsible-downarrow"><path xmlns="http://www.w3.org/2000/svg" d="M0 1A1 1 0 0 1 1.515.144L6 2.834 10.485.143a1 1 0 1 1 1.029 1.714l-5 3a1 1 0 0 1-1.029 0l-5-3A1 1 0 0 1 0 1z"/></g><g id="img-warning-icon"><defs xmlns="http://www.w3.org/2000/svg"/><path d="M12 5.177l8.631 15.823h-17.262l8.631-15.823zm0-4.177l-12 22h24l-12-22zm-1 9h2v6h-2v-6zm1 9.75c-.689 0-1.25-.56-1.25-1.25s.561-1.25 1.25-1.25 1.25.56 1.25 1.25-.561 1.25-1.25 1.25z"/></g><g xmlns="http://www.w3.org/2000/svg" id="slider-arrow-dark" transform="translate(-9 19.561)"><path id="Path_1" data-name="Path 1" d="M9,0H22.5" transform="translate(0.75 -12)" fill="none" stroke="#000e1f" stroke-linecap="round" stroke-linejoin="round" stroke-width="1.5"/><path id="Path_2" data-name="Path 2" d="M4,17l6.5-6.5L4,4" transform="translate(12.75 -22.5)" fill="none" stroke="#000e1f" stroke-linecap="round" stroke-linejoin="round" stroke-width="1.5"/></g><g xmlns="http://www.w3.org/2000/svg" id="slider-arrow-white" stroke="none" stroke-width="1" fill="none" fill-rule="evenodd"><g id="Group" transform="translate(0.000000, -0.000250)" fill="#ffffff" fill-rule="nonzero"><path d="M14.25,7.99975 L0.75,7.99975 C0.336,7.99975 0,7.66475 0,7.24975 C0,6.83575 0.336,6.49975 0.75,6.49975 L14.25,6.49975 C14.664,6.49975 15,6.83575 15,7.24975 C15,7.66475 14.664,7.99975 14.25,7.99975" id="Fill-1"/><path d="M7.75,14.50075 C7.558,14.50075 7.366,14.42775 7.22,14.28075 C6.927,13.98775 6.927,13.51375 7.22,13.22075 L13.189,7.25075 L7.22,1.28075 C6.927,0.98775 6.927,0.51275 7.22,0.21975 C7.513,-0.07325 7.987,-0.07325 8.28,0.21975 L14.78,6.71975 C15.073,7.01275 15.073,7.48775 14.78,7.78075 L8.28,14.28075 C8.134,14.42775 7.942,14.50075 7.75,14.50075" id="Fill-3"/></g></g><g id="arrow-right-blue"><path id="Chevron-1-2" fill="#187de6" d="M7 1052.89a1 1 0 0 1-.856-1.515l5.691-9.485-5.692-9.49a1 1 0 1 1 1.714-1.029l6 10a1 1 0 0 1 0 1.029l-6 10a1 1 0 0 1-.857.49z" data-name="arrow-right-blue" transform="translate(-6 -1030.889)"/></g><g id="arrow-right-white"><path id="Chevron-1-2" fill="#ffffff" d="M7 1052.89a1 1 0 0 1-.856-1.515l5.691-9.485-5.692-9.49a1 1 0 1 1 1.714-1.029l6 10a1 1 0 0 1 0 1.029l-6 10a1 1 0 0 1-.857.49z" data-name="arrow-right-white" transform="translate(-6 -1030.889)"/></g><g xmlns="http://www.w3.org/2000/svg" id="square-chevron-bg-1-left"><path transform="translate(0 .002)" style="fill:rgba(0,0,0,.05)" d="M0 0h30v30H0z"/><path d="M30 30.002H0v-30h30v30zm-29-29v28h28v-28H1z"/><path d="m7.062 15.004 6.072-6.068.705.709-4.857 4.857h13.254v1H8.982l4.857 4.857-.705.709z"/></g><g xmlns="http://www.w3.org/2000/svg" id="square-chevron-bg-1-left-hover"><path transform="translate(0 .002)" style="fill:rgba(0,0,0,.1)" d="M0 0h30v30H0z"/><path d="M30 30.002H0v-30h30v30zm-29-29v28h28v-28H1z"/><path d="m7.062 15.004 6.072-6.068.705.709-4.857 4.857h13.254v1H8.982l4.857 4.857-.705.709z"/></g><g xmlns="http://www.w3.org/2000/svg" id="square-chevron-bg-2-left"><path transform="translate(0 .002)" style="fill:rgba(0,0,0,.4)" d="M0 0h30v30H0z"/><path d="M21715 22391h-30v-30h30v30zm-29-29v28h28v-28h-28z" transform="translate(-21685 -22360.998)" style="fill:#fff"/><path d="m21228 19286.07 6.072-6.072.705.709-4.854 4.857h13.25v1h-13.26l4.863 4.861-.705.709z" transform="translate(-21220.941 -19271.066)" style="fill:#fff"/></g><g xmlns="http://www.w3.org/2000/svg" id="square-chevron-bg-2-left-hover"><path transform="translate(0 .002)" style="fill:rgba(0,0,0,.6)" d="M0 0h30v30H0z"/><path d="M21715 22391h-30v-30h30v30zm-29-29v28h28v-28h-28z" transform="translate(-21685 -22360.998)" style="fill:#fff"/><path d="m21228 19286.07 6.072-6.072.705.709-4.854 4.857h13.25v1h-13.26l4.863 4.861-.705.709z" transform="translate(-21220.941 -19271.066)" style="fill:#fff"/></g><g xmlns="http://www.w3.org/2000/svg" id="square-chevron-bg-3-left"><path style="fill:rgba(255,255,255,.3)" d="M0 0h30.008v30.008H0z"/><path d="M21715 22391h-30v-30h30v30zm-29-29v28h28v-28h-28z" transform="translate(-21684.996 -22360.996)" style="fill:#fff"/><path d="m21228 19155.068 6.066-6.066.709.7-4.861 4.861h13.258v1h-13.264l4.867 4.861-.709.705z" transform="translate(-21220.934 -19140.064)" style="fill:#fff"/></g><g xmlns="http://www.w3.org/2000/svg" id="square-chevron-bg-3-left-hover"><path style="fill:rgba(255,255,255,.5)" d="M0 0h30.008v30.008H0z"/><path d="M21715 22391h-30v-30h30v30zm-29-29v28h28v-28h-28z" transform="translate(-21684.996 -22360.996)" style="fill:#fff"/><path d="m21228 19155.068 6.066-6.066.709.7-4.861 4.861h13.258v1h-13.264l4.867 4.861-.709.705z" transform="translate(-21220.934 -19140.064)" style="fill:#fff"/></g><g xmlns="http://www.w3.org/2000/svg" id="square-horizontal-arrow-1-left"><path d="M30 30.002H0v-30h30v30zm-29-29v28h28v-28H1z"/><path d="m7.062 15.002 6.072-6.068.705.709-4.863 4.863h13.26v1H8.982l4.857 4.863-.705.7z"/></g><g xmlns="http://www.w3.org/2000/svg" id="square-horizontal-arrow-1-left-hover"><path d="M0 0h30v30H0z"/><path d="m21228 19024.068 6.072-6.068.705.709-4.863 4.863h13.26v1h-13.254l4.857 4.863-.705.7z" transform="translate(-21220.938 -19009.068)" style="fill:#fff"/></g><g xmlns="http://www.w3.org/2000/svg" id="square-horizontal-arrow-2-left"><g style="stroke:#fff;fill:none"><path style="stroke:none" d="M0 0h30v30H0z"/><path style="fill:none" d="M.5.5h29v29H.5z"/></g><path d="m21228 18893.066 6.072-6.068.705.709-4.857 4.857h13.254v1h-13.254l4.857 4.857-.705.709z" transform="translate(-21220.938 -18878.066)" style="fill:#fff"/></g><g xmlns="http://www.w3.org/2000/svg" id="square-horizontal-arrow-2-left-hover"><g style="fill:#fff;stroke:#fff"><path style="stroke:none" d="M0 0h30v30H0z"/><path style="fill:none" d="M.5.5h29v29H.5z"/></g><path d="m7.062 15 6.072-6.068.705.709-4.857 4.857h13.254v1H8.982l4.857 4.857-.705.709z"/></g><g xmlns="http://www.w3.org/2000/svg" id="z-logo"><g fill="none" fill-rule="evenodd"><g fill="#FFF"><g><g><path d="M10 0c-.15 0-.3.005-.45.011L7.505 5.633h1.782c1.06 0 1.63.816 1.269 1.812L8.032 14.38H5.913l2.708-7.434H7.027L4.321 14.38H2.2L7.3.37C3.088 1.547 0 5.413 0 10c0 4.724 3.275 8.681 7.679 9.728l5.13-14.095h3.902c1.061 0 1.632.816 1.27 1.812l-2.218 6.09c-.169.464-.71.844-1.204.844h-2.813l-2.043 5.615c.099.003.197.006.297.006 5.523 0 10-4.478 10-10S15.523 0 10 0" transform="translate(-30.000000, -300.000000) translate(30.000000, 300.000000) translate(73.000000, 0.000000)"/><path d="M16.274 6.921L14.686 6.921 12.463 13.021 14.051 13.021z" transform="translate(-30.000000, -300.000000) translate(30.000000, 300.000000) translate(73.000000, 0.000000)"/></g><path d="M15.344.006c-.118 0-.213.095-.213.213v6.43c0 .119.095.214.213.214H36.71c1.527 0 2.293 1.846 1.213 2.925L.062 47.636c-.133.136-.039.364.152.364h66.142c.12 0 .213-.095.213-.212v-6.431c0-.117-.094-.212-.213-.212H34.702c-1.527 0-2.292-1.847-1.212-2.927L71.35.37c.134-.134.04-.364-.15-.364H15.344z" transform="translate(-30.000000, -300.000000) translate(30.000000, 300.000000)"/></g></g></g></g><g xmlns="http://www.w3.org/2000/svg" id="z-play"><g fill="none" fill-rule="evenodd"><g fill="#FFF"><g><path d="M2.071 4.814L12.071 2.899 10.156 12.899z" transform="translate(-76.000000, -132.000000) translate(74.828427, 132.000000) translate(7.071068, 7.899495) rotate(-315.000000) translate(-7.071068, -7.899495)"/></g></g></g></g><g xmlns="http://www.w3.org/2000/svg" id="z-plus"><g fill="none" fill-rule="evenodd"><g fill="#FFF"><g><path d="M7 1H9V15H7z" transform="translate(-122.000000, -132.000000) translate(122.000000, 132.000000)"/><path d="M1 7H15V9H1z" transform="translate(-122.000000, -132.000000) translate(122.000000, 132.000000)"/></g></g></g></g><g xmlns="http://www.w3.org/2000/svg" id="z-minus"><g fill="none" fill-rule="evenodd"><g fill="#FFF"><g><path d="M1 7H15V9H1z" transform="translate(-168.000000, -132.000000) translate(168.000000, 132.000000)"/></g></g></g></g><g xmlns="http://www.w3.org/2000/svg" id="z-chevron"><g fill="none" fill-rule="evenodd"><g stroke="#FFF" stroke-width="2"><g><g><path d="M10 0L9.293 9.293 0 10" transform="translate(-214.000000, -132.000000) translate(214.000000, 130.707107) translate(8.071068, 7.071068) rotate(-315.000000) translate(-8.071068, -7.071068) translate(3.071068, 2.071068)"/></g></g></g></g></g><g xmlns="http://www.w3.org/2000/svg" id="z-arrow-16"><g fill="none" fill-rule="evenodd"><g stroke-width="2"><g><g><path d="M14 0L19.247 4.664M0 7h18.673c.69 0 1.25.56 1.25 1.25 0 .36-.155.703-.427.94L14 14h0" transform="translate(-30.000000, -132.000000) translate(30.000000, 132.000000) translate(0.000000, 1.000000)"/></g></g></g></g></g><g xmlns="http://www.w3.org/2000/svg" id="z-arrow"><defs><filter id="l0iz88j6za" color-interpolation-filters="auto"><feColorMatrix in="SourceGraphic" values="0 0 0 0 1.000000 0 0 0 0 1.000000 0 0 0 0 1.000000 0 0 0 1.000000 0"/></filter></defs><g fill="none" fill-rule="evenodd"><g><g filter="url(#l0iz88j6za)" transform="translate(-30.000000, -208.000000) translate(30.000000, 208.000000)"><g><path stroke-width="2" d="M14 0L24.495 9.329M0 14h23.346c1.381 0 2.5 1.12 2.5 2.5 0 .72-.31 1.407-.853 1.881L14 28h0" transform="translate(1.000000, 2.000000)"/></g></g></g></g></g></defs></svg>